<?xml version="1.0" encoding="UTF-8"?><svg id="Layer_2" xmlns="http://www.w3.org/2000/svg" viewBox="0 0 481 198"><defs><style>.cls-1{fill:#fff;}.cls-2{fill:#fc2;}</style></defs><g id="Layer_8"><g><g id="header_logo"><g id="Group_1"><path id="Path_1" class="cls-1" d="m16.15,31.97c8.81.1,17.46,1.2,25.6,4.97,6.1,2.82,11.41,6.95,16.6,11.24,9.97,8.16,18.6,17.82,25.57,28.65,8.62,13.5,10.46,28.29,6.8,43.9-2.73,11.68-8.47,21.73-15.83,30.87-9.27,11.71-21.71,20.5-35.83,25.33-9.26,3.19-18.7,3.85-27.58-1.27-4.74-2.73-8.4-6.76-8.49-13.02-.08-1.46.53-2.87,1.65-3.8,1.89-1.62,3.75-3.27,5.62-4.92,1.29-1.16,2-2.82,1.94-4.55.22-12.67-.35-25.31-1.08-37.95-.56-9.82-1.4-19.62-2.19-29.42-.66-8.29-1.57-16.56-2.4-24.83-.31-3.08-2.14-5.42-4.15-7.34-5.01-4.79-1.37-14.48,3.81-16.55,3.18-1.15,6.58-1.6,9.95-1.32m15.1,60.3c0,.79-.04,1.83,0,2.86.67,14.9,1.29,29.8,2.08,44.7.18,4.46.63,8.91,1.34,13.32.27,1.51.88,1.84,2.22,1.9,7.22.35,13.17-2.56,17.7-8.13,7.02-8.65,12.36-18.53,15.73-29.15,2.17-6.29,2.13-13.14-.11-19.41-3.21-9.16-8.39-17.49-15.19-24.41-6.2-6.25-13.38-10.77-22.02-12.42-2.43-.47-2.58-.33-2.58,2.26-.03,9.42.46,18.83.83,28.48"/><path id="Path_2" class="cls-1" d="m311.83,107.22c3.18-.08,6.36.04,9.53.36,1.03.21,2.04-.43,2.29-1.44,1.34-3.71,1.51-7.74.47-11.54-.43-1.68-1.83-2.95-3.54-3.22-7.24-1.64-14.22-.63-21.07,2.04-5.52,2.15-11.04,4.3-16.59,6.37-3.48,1.3-5.9.51-7.88-2.69-2.89-4.81-4.08-10.45-3.4-16.02.11-.96.68-1.81,1.52-2.28,8.53-5.91,18.38-9.64,28.69-10.85,6.74-.78,13.49-.94,20.16.71,11.81,2.92,18.54,10.96,21.56,22.87,2.17,8.54,1.55,17.03.24,25.59-1.74,11.35-4.96,22.4-6.32,33.81-.88,7.37-1.27,14.79-1.92,22.18-.37,5.97-1.56,11.86-3.52,17.51-.47,1.28-1.08,2.51-1.84,3.65-3.24,4.8-8.24,5.02-11.8.41-1.23-1.71-2.35-3.5-3.34-5.36-.76-1.45-2.16-2.45-3.78-2.69-8.37-1.42-16.74-2.8-25.09-4.34-13.77-2.54-24.76-11.85-27.01-24.84-2.04-11.79.43-22.78,8.49-32.06,9.78-11.25,22.01-16.84,36.38-17.88,1.32-.1,2.64-.23,3.96-.28,1.26-.05,2.52-.01,3.78-.01m-3.8,58.52c1.06,0,2.12.05,3.18,0,3.36-.19,4.09-.86,4.92-4.19,1.06-4.26,2.07-8.53,3.29-12.74,1.9-6.54,2.61-13.03.28-19.63-.5-1.42-1.03-1.93-2.58-1.58-8.09,1.81-16.25,3.26-24.28,5.29-6.34,1.6-11.85,4.96-14.04,11.82-2.4,7.53-2.02,10.63,4.14,14.21,7.64,4.39,16.29,6.74,25.1,6.82"/><path id="Path_3" class="cls-1" d="m212.31,69.47c1.8-.16,4.62.65,7.42,1.88,6.04,2.65,12.19,5.03,18.19,7.78,6.1,2.8,11.45,6.65,14.78,12.93,1.82,3.91,1.4,8.49-1.11,12-2.37,3.33-6.65,4.71-10.52,3.38-4.52-1.45-8.6-3.93-12.65-6.41-4.68-2.87-9.37-5.72-14.62-7.38-4.72-1.6-9.9-1.14-14.26,1.28-3.4,1.83-4.55,4.62-2.88,8.19,2.4,5.14,6.04,9.33,11.19,11.52,8.4,3.56,16.88,6.92,24.77,11.63,5.71,3.28,11.01,7.22,15.78,11.76,3.91,3.84,5.11,8.81,4.67,14.16-1.28,15.62-9.51,26.27-22.54,33.36-5.56,3.18-11.65,5.34-17.97,6.37-11.02,1.58-21.76,1.07-31.15-6.21-4.57-3.57-8.12-8.29-10.29-13.67-1.73-4.17.46-9.77,4.66-12.77,1.49-1.14,3.15-2.04,4.91-2.66,4.13-1.32,6.46-.44,8.78,3.36.64.96,1.22,1.97,1.74,3,2.14,4.64,5.94,6.69,10.6,7.27,7.96.99,15.3-.53,21.59-6.04,3.09-2.68,4.93-6.51,5.1-10.59.22-3.34-1.55-5.71-3.92-7.69-4.57-3.83-10.1-5.68-15.34-8.14-8.08-3.79-16.64-6.5-24.13-11.58-5.21-3.45-9.55-8.05-12.69-13.44-3.91-6.81-3.36-13.58.48-20.12,4.25-7.25,10.62-12.19,17.51-16.45,6.53-4.23,14.12-6.55,21.9-6.69"/><path id="Path_4" class="cls-1" d="m162.59,125.23c.27,11.39-2.96,22.59-9.24,32.1-2.76,4.19-5.81,8.18-9.12,11.96-3.37,4.01-7.76,5.51-12.67,5.99-12.22,1.17-20.81-5.23-27.6-14.72-7.63-10.67-8.99-22.97-7.29-35.78,1.24-9.3,5.39-17.32,10.56-24.86,2.89-4.03,5.52-8.24,7.88-12.61,2.16-4.55,6.73-7.46,11.77-7.48,8.99-.42,16.19,3.38,21.74,10.36,8.73,10.99,13.36,23.74,13.97,35.05m-21.85,7.01c.19-8.8-2.95-15.73-7.85-22.02-.96-1.53-2.91-2.1-4.55-1.34-1.07.41-2.04,1.03-2.87,1.82-4.64,4.35-8.45,9.4-10.35,15.62-2.77,9.07-1,16.21,8.55,19.26,2.21.71,4.54,1,6.86.87,4.85-.26,7.86-2.65,9.42-7.41.61-2.21.88-4.51.78-6.81"/><path id="Path_5" class="cls-1" d="m148.53,58.48c.01,5.6-2.4,9.85-6.63,11.67-4.51,1.94-11.41.59-14.67-2.83-1.48-1.65-2.27-3.81-2.2-6.03-.12-4.89.58-9.62,3.47-13.69,3.19-4.67,9.57-5.87,14.24-2.67,1.44.98,2.6,2.32,3.38,3.87,1.59,2.98,2.42,6.3,2.42,9.67"/><path id="Path_6" class="cls-1" d="m178.91,68.21c.13,4.3-1.27,8.51-3.95,11.87-2.73,3.51-6.29,4.95-10.57,3.95-4.11-1-7.59-3.72-9.55-7.46-1.22-2.13-1.4-4.69-.5-6.97,1.51-4.32,4.29-8.08,7.98-10.79,3.89-2.86,8.03-2.62,12-.32,3.68,2.13,4.95,5.72,4.6,9.72"/><path id="Path_7" class="cls-1" d="m100.86,74.11c-5.07-1.23-6.77-5.21-7.54-9.96-.69-3.3-.6-6.72.26-9.99,1.67-5.49,7.72-8.94,12.99-7.27,3.21,1.02,5.25,3.62,6.98,6.43,1.69,2.59,2.67,5.58,2.84,8.67.21,5.58-1.87,9.06-6.79,11.39-2.83.84-5.81,1.09-8.74.72"/><path id="Path_8" class="cls-1" d="m294.16,148.04c-.07-3.99,1.41-6.29,4.17-7.21,2.85-.96,5.92-1.01,8.79-.14,1.91.37,3.18,2.18,2.89,4.1-.23,3.99-1.92,7.76-4.74,10.59-1.57,1.59-4.2,1.58-6.46.1-2.57-1.67-4.27-4.39-4.66-7.43"/></g></g><g id="Group_29719"><circle id="Ellipse_51" class="cls-2" cx="423.5" cy="57.5" r="57.5"/><g id="Group_29718"><g id="Group_4129"><g id="Group_3874"><g id="Group_3873"><rect id="Rectangle_27" class="cls-1" x="417.01" y="50.11" width="12.55" height="12.82" transform="translate(84.01 315.86) rotate(-45)"/></g><path id="Path_23544" class="cls-1" d="m423.26,35.35l.14-.13,15.86,15.14,8.8-8.4-25.18-24.04-25.18,24.04,8.94,8.54,16.24-15.51.38.36Z"/><path id="Path_23545" class="cls-1" d="m439.12,64.88l-16.24,15.51-16.24-15.51-8.8,8.4,25.18,24.04,25.04-23.9-8.94-8.54Z"/><rect id="Rectangle_28" class="cls-1" x="386.58" y="51.29" width="11.88" height="12.4" transform="translate(74.31 294.39) rotate(-45)"/><rect id="Rectangle_29" class="cls-1" x="447.19" y="51.2" width="13.1" height="12.58" transform="translate(92.24 337.69) rotate(-45)"/></g></g></g></g></g></g></svg>